<svg viewBox="0 0 24 24"><path fill="currentColor" d="M18.35 2.59C7.68-3.14-3.14 7.67 2.59 18.35a9.06 9.06 0 0 0 3.68 3.68c10.67 5.73 21.49-5.08 15.76-15.76a9.06 9.06 0 0 0-3.68-3.68m-.95 18.23C8.24 25.58-.96 16.38 3.8 7.22a8.05 8.05 0 0 1 3.43-3.43c9.16-4.76 18.36 4.44 13.6 13.6a8.05 8.05 0 0 1-3.43 3.43"/><path fill="currentColor" d="M7.56 10V7.56H10c0-.83-.67-1.5-1.5-1.5H6.06V8.5c0 .83.67 1.5 1.5 1.5m7.06-2.44h2.45V10c.83 0 1.5-.67 1.5-1.5V6.06h-2.45c-.83 0-1.5.67-1.5 1.5m2.44 7.06v2.44h-2.45c0 .83.67 1.5 1.5 1.5h2.44v-2.44c0-.83-.67-1.5-1.5-1.5zm-9.5 0c-.83 0-1.5.67-1.5 1.5v2.44H8.5c.83 0 1.5-.67 1.5-1.5H7.56zm.94-4h4.89c.83 0 1.5-.67 1.5-1.5H10c-.83 0-1.5.67-1.5 1.5m0 2.44h6.11c.83 0 1.5-.67 1.5-1.5H10c-.83 0-1.5.67-1.5 1.5m0 2.44h3.67c.83 0 1.5-.67 1.5-1.5H10c-.83 0-1.5.67-1.5 1.5"/></svg>