<svg viewBox="0 0 24 24"><path fill="currentColor" d="M21.25 2H2.75c-.41 0-.75.34-.75.75v18.5c0 .41.34.75.75.75h18.5c.41 0 .75-.34.75-.75V2.75c0-.41-.34-.75-.75-.75m-.75 18.5h-17v-17h17z"/><path fill="currentColor" d="M15.71 10.87c-1.95 0-3.54 1.66-3.54 3.71s1.97 4.13 2.86 4.94c.2.16.43.24.67.24s.5-.09.73-.27c.85-.78 2.83-2.81 2.83-4.91s-1.59-3.71-3.54-3.71zm0 7.23c-1.04-1.02-2.04-2.4-2.04-3.52 0-1.22.92-2.21 2.04-2.21s2.04.99 2.04 2.21c0 1.13-1.02 2.53-2.04 3.52"/><path fill="currentColor" d="M15.71 12.72c-.99 0-1.8.83-1.8 1.86s.81 1.86 1.8 1.86 1.8-.83 1.8-1.86-.81-1.86-1.8-1.86m0 2.21c-.16 0-.3-.16-.3-.36s.13-.36.3-.36.3.16.3.36-.13.36-.3.36"/><path fill="currentColor" d="M11.68 15.06c-.11-.06-.23-.12-.34-.19-.36-.2-.75-.41-1.2-.53V5.98c.2.1.44.22.75.37l2.16 1.11c.05.03.08.04.13.06v2.47c0 .41.34.75.75.75s.75-.34.75-.75V7.82h1.2c.88 0 1.51 0 1.67.17.17.18.17.87.17 1.82v.52c0 .41.34.75.75.75s.75-.34.75-.75v-.52c0-1.44 0-2.23-.59-2.85-.6-.63-1.41-.63-2.76-.63h-1.35c-.15 0-.24 0-.32-.01-.04-.02-.09-.02-.13-.03a3 3 0 0 1-.34-.15l-2.16-1.11c-.98-.5-1.52-.78-2.2-.76-.67.02-1.2.34-2.15.91l-.8.48c-.71.42-1.13.68-1.41 1.18-.27.49-.27 1-.27 1.85v5.46c0 1.19 0 1.79.38 2.28.26.33.63.56 1.04.63.08.02.17.02.25.02.53 0 1.05-.31 1.96-.86.52-.32.86-.5 1.24-.45.3.04.64.23.99.43.13.07.26.14.38.21.37.19.82.04 1.01-.32.19-.37.04-.82-.32-1.01zm-3.04-.66c-.4.14-.77.36-1.11.56-.48.29-.97.58-1.09.6-.05 0-.09-.04-.12-.07-.07-.14-.07-.76-.07-1.37V8.66c0-.59 0-.97.08-1.12.08-.14.38-.32.87-.62l.8-.48c.26-.16.47-.28.65-.38v8.33z"/></svg>